<?xml version="1.0" encoding="utf-8"?>
<!-- Generator: Adobe Illustrator 25.0.1, SVG Export Plug-In . SVG Version: 6.00 Build 0)  -->
<svg version="1.1" id="Слой_1" xmlns="http://www.w3.org/2000/svg" xmlns:xlink="http://www.w3.org/1999/xlink" x="0px" y="0px"
	 viewBox="0 0 287 287" style="enable-background:new 0 0 287 287;" xml:space="preserve">
<style type="text/css">
	.st0{opacity:0.12;clip-path:url(#SVGID_2_);}
	.st1{fill:#1F00FF;}
</style>
<g>
	<defs>
		<rect id="SVGID_1_" y="0" width="287" height="287"/>
	</defs>
	<clipPath id="SVGID_2_">
		<use xlink:href="#SVGID_1_"  style="overflow:visible;"/>
	</clipPath>
	<g class="st0">
		<path class="st1" d="M143.6,0C64.2,0,0,64.2,0,143.6c0,79.2,64.2,143.6,143.6,143.6c79.2,0,143.6-64.2,143.6-143.6
			C287,64.2,222.8,0,143.6,0z M143.6,277.9c-74.3,0-134.3-60.1-134.3-134.3C9.3,69.3,69.3,9.3,143.6,9.3
			c74.3,0,134.3,60.1,134.3,134.3C277.9,217.7,217.7,277.9,143.6,277.9z"/>
		<path class="st1" d="M143.6,30.9c-62,0-112.5,50.4-112.5,112.5c0,62,50.4,112.5,112.5,112.5c62,0,112.5-50.2,112.5-112.3
			C256.1,81.4,205.6,30.9,143.6,30.9z M143.6,238.7c-52.6,0-95.3-42.7-95.3-95.3c0-52.6,42.7-95.3,95.3-95.3
			c52.6,0,95.3,42.7,95.3,95.3C238.9,196,196.2,238.7,143.6,238.7z"/>
	</g>
</g>
</svg>
